<svg xmlns="http://www.w3.org/2000/svg" width="24" height="24" viewBox="0 0 24 24">
    <g id="bing" transform="translate(3.000000, 3.000000)">
        <path d="M17.9618231,7.73457802 C17.9618231,7.56800202 17.8008705,7.39173433 17.6041506,7.34285185 L7.02871838,4.72082451 C6.83192369,4.67206317 6.74153282,4.7559569 6.82788304,4.90714734 L8.79560544,8.36587076 C8.88173117,8.51706119 9.10568802,8.69702384 9.29312935,8.76565315 L11.9910124,9.75493286 C12.1785286,9.82344102 12.1830182,9.9430123 12.0009644,10.020667 L0.488998942,14.9235135 C0.306870323,15.0011076 0.28344951,14.973668 0.436994262,14.8628192 L4.85986134,11.6737672 C5.01348092,11.5629184 5.13911524,11.3360116 5.13911524,11.1694357 L5.14225797,1.50142536 C5.14210832,1.33484937 4.98108088,1.15846053 4.78436102,1.10957804 L0.358500868,0.0125993882 C0.16170618,-0.0360408029 0.000678739951,0.0605127023 0.000678739951,0.227088699 L0.000678739951,14.8941961 C0.000678739951,15.0607721 0.138584675,15.2752614 0.307094803,15.3708457 L4.8046391,17.922366 C4.97314923,18.0179503 5.25562069,18.0264911 5.4324366,17.9412042 L17.6408906,12.0535605 C17.8176317,11.9682736 17.9623469,11.7622645 17.9623469,11.5956885 L17.9618231,7.73457802 Z" id="Shape"></path>
    </g>
</svg>