<svg xmlns="http://www.w3.org/2000/svg" width="24" height="24" viewBox="0 0 24 24">
    <g id="dwolla" transform="translate(6.000000, 2.000000)">
        <path d="M9.36572447,7.96844181 C8.61621757,7.02169625 7.7878152,6.11439842 7.23554696,5.04930966 C6.44659232,3.55029586 6.32824913,1.42011834 8.37953118,0 C6.32824913,0.90729783 4.27696707,1.77514793 2.22568502,2.68244576 C0.845014412,3.31360947 0.13495524,4.41814596 0.174402972,5.87771203 C0.213850704,7.29783037 0.80556668,8.52071006 1.71286451,9.58579882 C2.58071461,10.6114398 3.44856471,11.5976331 4.35586254,12.5838264 C4.434758,12.6627219 4.51365347,12.7416174 4.5531012,12.8205128 C4.5531012,12.8205128 4.5531012,12.8205128 4.59254893,12.8205128 C4.07972842,13.0177515 3.5669079,13.2544379 3.09353512,13.4516765 C2.73850554,13.6094675 2.42292368,13.7672584 2.0678941,13.9250493 C0.174402972,14.7140039 -0.456760736,16.2524655 0.332193899,18.1459566 C0.766118949,19.2899408 1.83120771,20 3.09353512,20 C3.36966924,20 3.64580337,20 3.88248976,19.9211045 L3.92193749,19.9211045 C4.23751934,19.8027613 4.47420573,19.6844181 4.71089212,19.5266272 C6.76217418,18.6587771 8.77400849,17.7514793 10.7858428,16.8441815 C12.087618,16.2130178 12.6004385,15.0690335 12.6398862,13.6883629 C12.6793339,12.5838264 12.2848566,11.6370809 11.6142452,10.6903353 C10.9436337,9.74358974 10.0757836,8.91518738 9.36572447,7.96844181 Z M3.72469883,19.2899408 C3.48801244,19.3293886 3.29077378,19.3293886 3.09353512,19.3293886 C2.14678956,19.3293886 1.31838719,18.816568 0.963357607,17.9092702 C0.332193899,16.3313609 0.80556668,15.1873767 2.34402822,14.5167653 C2.6990578,14.3589744 3.05408739,14.2011834 3.40911698,14.0433925 C3.92193749,13.8461538 4.434758,13.6094675 4.94757851,13.3727811 C4.98702625,13.3727811 5.02647398,13.3727811 5.06592171,13.3333333 C5.22371264,13.5700197 5.4209513,13.8461538 5.61818995,14.1617357 C5.89432408,14.6745562 6.09156274,15.3057199 6.052115,15.9763314 C5.97321954,17.199211 5.3026081,18.6587771 3.72469883,19.2899408 Z" id="Shape"></path>
    </g>
</svg>