<svg xmlns="http://www.w3.org/2000/svg" width="24" height="24" viewBox="0 0 24 24">
    <g id="facebook" transform="translate(7.000000, 2.000000)">
        <path d="M10.4,0.126315789 L10.4,3.32631579 L8.50526316,3.32631579 C7.78947368,3.32631579 7.32631579,3.45263158 7.11578947,3.74736842 C6.86315789,4.04210526 6.73684211,4.46315789 6.73684211,5.05263158 L6.73684211,7.32631579 L10.2736842,7.32631579 L9.81052632,10.9052632 L6.73684211,10.9052632 L6.73684211,20 L3.07368421,20 L3.07368421,10.9052632 L0,10.9052632 L0,7.32631579 L3.07368421,7.32631579 L3.07368421,4.71578947 C3.07368421,3.2 3.49473684,2.06315789 4.29473684,1.22105263 C5.13684211,0.421052632 6.27368421,0 7.66315789,0 C8.84210526,0 9.72631579,0.0421052632 10.4,0.126315789 Z" id="Shape"></path>
    </g>
</svg>