<svg xmlns="http://www.w3.org/2000/svg" width="24" height="24" viewBox="0 0 24 24">
    <g id="google" transform="translate(2.000000, 2.000000)">
        <path d="M19.4285714,8.14285714 C19.5238095,8.80952381 19.6190476,9.47619048 19.6190476,10.2380952 C19.6190476,15.952381 15.7619048,20 10,20 C4.47619048,20 0,15.5238095 0,10 C0,4.47619048 4.47619048,0 10,0 C12.7142857,0 14.952381,1 16.7142857,2.61904762 L13.8571429,5.42857143 C12.8095238,4.42857143 11.4761905,3.9047619 10,3.9047619 C6.71428571,3.9047619 4.04761905,6.71428571 4.04761905,10 C4.04761905,13.2857143 6.71428571,16.0952381 10,16.0952381 C13,16.0952381 15.047619,14.3809524 15.4761905,12.047619 L10,12.047619 L10,8.14285714 L19.4285714,8.14285714 Z" id="Shape"></path>
    </g>
</svg>