<svg xmlns="http://www.w3.org/2000/svg" width="24" height="24" viewBox="0 0 24 24">
    <g id="instagram" transform="translate(2.000000, 2.000000)">
        <path d="M10.0365189,0 C7.31074954,0 6.96896264,0.0115535842 5.89846331,0.0603973575 C4.830195,0.109121611 4.10060608,0.278799939 3.4622108,0.52692312 C2.80222225,0.78337285 2.24251086,1.12655414 1.68451258,1.68451258 C1.12655414,2.24251086 0.78337285,2.80222225 0.52692312,3.4622108 C0.278799939,4.10060608 0.109121611,4.830195 0.0603973575,5.89846331 C0.0115535842,6.96896264 0,7.31074954 0,10.0365189 C0,12.7622485 0.0115535842,13.1040354 0.0603973575,14.1745347 C0.109121611,15.242803 0.278799939,15.972392 0.52692312,16.6107873 C0.78337285,17.2707758 1.12655414,17.8304872 1.68451258,18.3884854 C2.24251086,18.9464439 2.80222225,19.2896251 3.4622108,19.5461148 C4.10060608,19.7941981 4.830195,19.9638764 5.89846331,20.0126007 C6.96896264,20.0614444 7.31074954,20.072998 10.0365189,20.072998 C12.7622485,20.072998 13.1040354,20.0614444 14.1745347,20.0126007 C15.242803,19.9638764 15.972392,19.7941981 16.6107873,19.5461148 C17.2707758,19.2896251 17.8304872,18.9464439 18.3884854,18.3884854 C18.9464439,17.8304872 19.2896251,17.2707758 19.5461148,16.6107873 C19.7941981,15.972392 19.9638764,15.242803 20.0126007,14.1745347 C20.0614444,13.1040354 20.072998,12.7622485 20.072998,10.0365189 C20.072998,7.31074954 20.0614444,6.96896264 20.0126007,5.89846331 C19.9638764,4.830195 19.7941981,4.10060608 19.5461148,3.4622108 C19.2896251,2.80222225 18.9464439,2.24251086 18.3884854,1.68451258 C17.8304872,1.12655414 17.2707758,0.78337285 16.6107873,0.52692312 C15.972392,0.278799939 15.242803,0.109121611 14.1745347,0.0603973575 C13.1040354,0.0115535842 12.7622485,0 10.0365189,0 Z M10.0365189,1.80837497 C12.7163528,1.80837497 13.0337976,1.81861384 14.0921059,1.86689985 C15.0706546,1.91152059 15.6020796,2.07502373 15.9557389,2.21247154 C16.4242168,2.39454009 16.7585536,2.61202635 17.1097427,2.96325531 C17.4609717,3.31444443 17.6784579,3.64878126 17.8605265,4.11725918 C17.9979743,4.47091837 18.1614775,5.00234341 18.2060982,5.98089215 C18.2543842,7.03920047 18.2646231,7.35664515 18.2646231,10.0365189 C18.2646231,12.7163528 18.2543842,13.0337976 18.2060982,14.0921059 C18.1614775,15.0706546 17.9979743,15.6020796 17.8605265,15.9557389 C17.6784579,16.4242168 17.4609717,16.7585536 17.1097427,17.1097427 C16.7585536,17.4609717 16.4242168,17.6784579 15.9557389,17.8605265 C15.6020796,17.9979743 15.0706546,18.1614775 14.0921059,18.2060982 C13.0339569,18.2543842 12.716552,18.2646231 10.0365189,18.2646231 C7.35644595,18.2646231 7.03908095,18.2543842 5.98089215,18.2060982 C5.00234341,18.1614775 4.47091837,17.9979743 4.11725918,17.8605265 C3.64878126,17.6784579 3.31444443,17.4609717 2.96325531,17.1097427 C2.61206619,16.7585536 2.39454009,16.4242168 2.21247154,15.9557389 C2.07502373,15.6020796 1.91152059,15.0706546 1.86689985,14.0921059 C1.81861384,13.0337976 1.80837497,12.7163528 1.80837497,10.0365189 C1.80837497,7.35664515 1.81861384,7.03920047 1.86689985,5.98089215 C1.91152059,5.00234341 2.07502373,4.47091837 2.21247154,4.11725918 C2.39454009,3.64878126 2.61202635,3.31444443 2.96325531,2.96325531 C3.31444443,2.61202635 3.64878126,2.39454009 4.11725918,2.21247154 C4.47091837,2.07502373 5.00234341,1.91152059 5.98089215,1.86689985 C7.03920047,1.81861384 7.35664515,1.80837497 10.0365189,1.80837497 Z" id="Fill-1"></path>
        <path d="M10.0365189,13.3819987 C8.18882193,13.3819987 6.69099934,11.8841761 6.69099934,10.0365189 C6.69099934,8.18882193 8.18882193,6.69099934 10.0365189,6.69099934 C11.8841761,6.69099934 13.3819987,8.18882193 13.3819987,10.0365189 C13.3819987,11.8841761 11.8841761,13.3819987 10.0365189,13.3819987 Z M10.0365189,4.88262437 C7.19007434,4.88262437 4.88262437,7.19007434 4.88262437,10.0365189 C4.88262437,12.8829237 7.19007434,15.1903737 10.0365189,15.1903737 C12.8829237,15.1903737 15.1903737,12.8829237 15.1903737,10.0365189 C15.1903737,7.19007434 12.8829237,4.88262437 10.0365189,4.88262437 Z" id="Fill-4"></path>
        <path d="M16.598397,4.67900241 C16.598397,5.34417014 16.0591633,5.88336397 15.3939956,5.88336397 C14.7288677,5.88336397 14.189634,5.34417014 14.189634,4.67900241 C14.189634,4.01383468 14.7288677,3.47460101 15.3939956,3.47460101 C16.0591633,3.47460101 16.598397,4.01383468 16.598397,4.67900241" id="Fill-5"></path>
    </g>
</svg>
