<svg xmlns="http://www.w3.org/2000/svg" width="24" height="24" viewBox="0 0 24 24">
    <g id="klout" transform="translate(2.000000, 6.000000)">
        <path d="M3.54999989,11.3599997 L0,11.3599997 L4.1022221,5.5616665 L0.315555546,0 L3.78666655,0 L6.50833314,4.25999987 L7.73111088,4.25999987 L7.73111088,6.90277757 L6.50833314,6.90277757 L3.54999989,11.3599997 M3.54999989,11.3599997 L0,11.3599997 L4.1022221,5.5616665 L0.315555546,0 L3.78666655,0 L6.50833314,4.25999987 L7.73111088,4.25999987 L7.73111088,6.90277757 L6.50833314,6.90277757 L3.54999989,11.3599997 M16.4483328,11.3599997 L13.4899996,6.90277757 L11.4388885,6.90277757 L11.4388885,11.3599997 L8.59888863,11.3599997 L8.59888863,0 L11.4388885,0 L11.4388885,4.25999987 L13.4899996,4.25999987 L16.2511106,0 L19.6827772,0 L15.9355551,5.5616665 L19.9983327,11.3599997 L16.4483328,11.3599997" id="Shape"></path>
    </g>
</svg>