<svg xmlns="http://www.w3.org/2000/svg" width="24" height="24" viewBox="0 0 24 24">
    <g id="linked_in" transform="translate(2.000000, 2.000000)">
        <path d="M4.52100007,6.25633343 L4.52100007,19.1800003 L0.228333337,19.1800003 L0.228333337,6.25633343 L4.52100007,6.25633343 Z M4.79500008,2.2376667 C4.79500008,2.87700005 4.61233341,3.42500005 4.15566673,3.83600006 C3.69900006,4.24700007 3.10533338,4.4753334 2.3746667,4.4753334 C1.64400003,4.4753334 1.05033335,4.24700007 0.639333344,3.83600006 C0.18266667,3.42500005 0,2.87700005 0,2.2376667 C0,1.59833336 0.18266667,1.05033335 0.639333344,0.639333344 C1.09600002,0.228333337 1.68966669,0 2.42033337,0 C3.15100005,0 3.69900006,0.228333337 4.15566673,0.639333344 C4.56666674,1.05033335 4.79500008,1.59833336 4.79500008,2.2376667 Z M20.0020003,11.7363335 L20.0020003,19.1800003 L15.7093336,19.1800003 L15.7093336,12.2386669 C15.7093336,11.3253335 15.5723336,10.6403335 15.2070002,10.0923335 C14.8416669,9.59000015 14.2936669,9.31600015 13.5630002,9.31600015 C13.0150002,9.31600015 12.5583335,9.49866682 12.1930002,9.77266682 C11.7820002,10.0923335 11.5080002,10.4576668 11.3253335,10.9143335 C11.2340002,11.1426668 11.1883335,11.5080002 11.1883335,11.9646669 L11.1883335,19.1800003 L6.89566678,19.1800003 C6.94133344,15.7093336 6.94133344,12.8780002 6.94133344,10.7316668 C6.94133344,8.58533347 6.94133344,7.26100012 6.94133344,6.85000011 L6.89566678,6.25633343 L11.1883335,6.25633343 L11.1883335,8.1286668 C11.3710002,7.85466679 11.5080002,7.58066679 11.6906669,7.39800012 C11.8733335,7.16966678 12.1473335,6.94133344 12.4670002,6.71300011 C12.7410002,6.48466677 13.1520002,6.25633343 13.5630002,6.11933343 C14.0196669,5.98233343 14.5220002,5.93666676 15.0700002,5.93666676 C16.5770003,5.93666676 17.7643336,6.4390001 18.677667,7.39800012 C19.5910003,8.4026668 20.0020003,9.86400016 20.0020003,11.7363335 Z" id="Shape"></path>
    </g>
</svg>