<svg xmlns="http://www.w3.org/2000/svg" width="24" height="24" viewBox="0 0 24 24">
    <g id="paypal" transform="translate(3.000000, 2.000000)">
        <path d="M14.6776763,1.50197628 C13.7290597,0.434782609 12.029455,0 9.85554194,0 L3.53143127,0 C3.09664866,0 2.70139174,0.316205534 2.62234036,0.750988142 L0.0136447056,17.1541502 C-0.0654066778,17.4703557 0.211273164,17.7865613 0.527478698,17.7865613 L4.44052218,17.7865613 L5.42866447,11.6600791 L5.38913878,11.8577075 C5.46819016,11.4229249 5.82392139,11.1067194 6.29822969,11.1067194 L8.1559372,11.1067194 C11.7923008,11.1067194 14.6381506,9.64426877 15.4681902,5.45454545 C15.5077159,5.33596838 15.5077159,5.2173913 15.5472415,5.05928854 C15.7843957,3.51778656 15.5472415,2.45059289 14.6776763,1.50197628 M15.5472415,5.05928854 C15.5077159,5.2173913 15.5077159,5.33596838 15.4681902,5.45454545 C14.6381506,9.64426877 11.7923008,11.1067194 8.1559372,11.1067194 L6.29822969,11.1067194 C5.82392139,11.1067194 5.46819016,11.4229249 5.38913878,11.8577075 L4.44052218,17.7865613 L4.16384233,19.4466403 C4.12431664,19.7233202 4.36147079,20 4.63815063,20 L7.91878305,20 C8.31403996,20 8.66977119,19.7233202 8.70929688,19.3280632 L8.74882257,19.1699605 L9.38123364,15.2964427 L9.42075933,15.0988142 C9.46028502,14.7035573 9.81601625,14.4268775 10.1717475,14.4268775 L10.6855815,14.4268775 C13.8871625,14.4268775 16.3772811,13.1620553 17.0887435,9.48616601 C17.4049491,7.94466403 17.2468463,6.6798419 16.4563325,5.77075099 C16.1796526,5.49407115 15.9029728,5.256917 15.5472415,5.05928854 M14.6776763,4.743083 C14.4009965,4.66403162 14.1243166,4.58498024 13.8476368,4.54545455 C13.3338028,4.46640316 12.8199688,4.42687747 12.2270834,4.42687747 L7.24684629,4.42687747 C7.12826921,4.42687747 7.00969214,4.46640316 6.93064075,4.50592885 C6.6934866,4.62450593 6.53538384,4.82213439 6.49585814,5.09881423 L5.42866447,11.6600791 L5.38913878,11.8577075 C5.46819016,11.4229249 5.82392139,11.1067194 6.29822969,11.1067194 L8.1559372,11.1067194 C11.7923008,11.1067194 14.6381506,9.64426877 15.4681902,5.45454545 C15.5077159,5.33596838 15.5077159,5.2173913 15.5472415,5.05928854 C15.3100874,4.98023715 15.1124589,4.86166008 14.8357791,4.7826087 C14.7962534,4.7826087 14.717202,4.743083 14.6776763,4.743083" id="Shape"></path>
    </g>
</svg>