<svg xmlns="http://www.w3.org/2000/svg" width="24" height="24" viewBox="0 0 24 24">
    <g id="pinterest" transform="translate(2.000000, 2.000000)">
        <path d="M0,10.0010001 C0.052,7.16271627 1.054,4.79247925 3.008,2.89228923 C4.962,0.99209921 7.292,0.0260026003 10,0 C12.916,0.0520052005 15.306,1.04810481 17.168,2.98829883 C19.03,4.92849285 19.974,7.26672667 20,10.0010001 C19.948,12.8132813 18.946,15.1775178 16.992,17.0917092 C15.038,19.0039004 12.708,19.9739974 10,20 C9.062,20 8.126,19.8559856 7.188,19.569957 C7.37,19.2839284 7.552,18.9578958 7.734,18.5938594 C7.942,18.1518152 8.202,17.3177318 8.516,16.0936094 C8.594,15.7555756 8.712,15.29953 8.868,14.7254725 C9.05,15.0375038 9.362,15.3235324 9.806,15.5855586 C10.978,16.1316132 12.214,16.079608 13.516,15.429543 C14.87,14.6474647 15.808,13.4373437 16.328,11.7971797 C16.796,10.0790079 16.738,8.48284828 16.152,7.01270127 C15.566,5.54055406 14.518,4.48044804 13.008,3.82838284 C11.108,3.28232823 9.258,3.34033403 7.462,4.00440044 C5.666,4.66846685 4.416,5.80858086 3.712,7.42274227 C3.53,8.02080208 3.42,8.61486149 3.38,9.20092009 C3.34,9.7869787 3.36,10.3590359 3.438,10.9190919 C3.516,11.4791479 3.712,11.9811981 4.024,12.4232423 C4.336,12.8652865 4.754,13.2053205 5.274,13.4393439 C5.404,13.4913491 5.508,13.4913491 5.586,13.4393439 C5.69,13.3873387 5.794,13.1793179 5.898,12.8152815 C6.002,12.4512451 6.042,12.2032203 6.016,12.0732073 C5.99,12.0212021 5.938,11.9291929 5.86,11.7991799 C5.314,10.9130913 5.13,9.9829983 5.314,9.00690069 C5.496,8.03080308 5.9,7.20272027 6.524,6.52665267 C7.488,5.66656666 8.614,5.19851985 9.902,5.12051205 C11.19,5.04250425 12.292,5.39453945 13.202,6.17461746 C13.696,6.74667467 14.016,7.43674367 14.158,8.24482448 C14.3,9.05290529 14.302,9.8269827 14.158,10.5690569 C14.014,11.3111311 13.76,12.0072007 13.396,12.6592659 C12.744,13.6753675 11.976,14.1954195 11.092,14.2214221 C10.572,14.1954195 10.148,13.9933993 9.822,13.6153615 C9.496,13.2373237 9.398,12.8012801 9.53,12.3072307 C9.582,12.0212021 9.738,11.4611461 9.998,10.6270627 C10.258,9.7929793 10.402,9.16891689 10.428,8.75287529 C10.35,7.76277628 9.894,7.25472547 9.06,7.22872287 C8.408,7.30673067 7.928,7.60076008 7.614,8.10681068 C7.3,8.61286129 7.132,9.19491949 7.106,9.8449845 C7.184,10.6010601 7.302,11.1211121 7.458,11.4071407 C7.172,12.5792579 6.95,13.5173517 6.794,14.2194219 C6.742,14.4014401 6.598,14.9614961 6.364,15.89959 C6.13,16.8376838 6,17.5537554 5.974,18.0478048 L5.974,19.1419142 C4.126,18.2818282 2.666,17.039704 1.6,15.4115412 C0.534,13.7833783 0,11.9791979 0,10.0010001 Z" id="Shape"></path>
    </g>
</svg>