<svg xmlns="http://www.w3.org/2000/svg" width="24" height="24" viewBox="0 0 24 24">
    <g id="slack" transform="translate(2.000000, 2.000000)">
        <path d="M12.9648895,1.24565744 C12.6523895,0.308157442 11.6367645,-0.199655058 10.6992645,0.0737824421 C9.80082699,0.386282442 9.25395199,1.40190744 9.56645199,2.33940744 L14.175827,16.5190949 C14.488327,17.3784699 15.425827,17.8862824 16.363327,17.6128449 C17.300827,17.3394074 17.8867645,16.3237824 17.5742645,15.3862824 C17.5742645,15.3862824 12.9648895,1.24565744 12.9648895,1.24565744 M5.81645199,3.55034494 C5.50395199,2.61284494 4.52738949,2.10503244 3.58988949,2.41753244 C2.65238949,2.73003244 2.14457699,3.70659494 2.45707699,4.64409494 L7.02738949,18.8237824 C7.37895199,19.6831574 8.31645199,20.1909699 9.21488949,19.9175324 C10.1523895,19.6440949 10.738327,18.6675324 10.425827,17.7300324 C10.425827,17.6909699 5.81645199,3.55034494 5.81645199,3.55034494 M18.7461395,12.9644074 C19.6836395,12.6519074 20.191452,11.6753449 19.9180145,10.7378449 C19.6055145,9.80034494 18.5898895,9.29253244 17.6523895,9.56596994 L3.47270199,14.1753449 C2.61332699,14.4878449 2.10551449,15.4644074 2.37895199,16.3628449 C2.65238949,17.3003449 3.66801449,17.8862824 4.60551449,17.5737824 C4.60551449,17.5737824 18.7461395,12.9644074 18.7461395,12.9644074 M6.44145199,16.9878449 C7.37895199,16.6753449 8.55082699,16.2847199 9.83988949,15.8550324 C9.52738949,14.9565949 9.13676449,13.7456574 8.74613949,12.4956574 L5.34770199,13.5894074 L6.44145199,16.9878449 M13.5898895,14.6440949 C14.8398895,14.2534699 16.050827,13.8628449 16.9492645,13.5503449 C16.675827,12.6128449 16.285202,11.4409699 15.8555145,10.1519074 L12.4961395,11.2456574 L13.5898895,14.6440949 M16.441452,5.81596994 C17.378952,5.54253244 17.8867645,4.52690744 17.5742645,3.58940744 C17.2617645,2.65190744 16.285202,2.14409494 15.347702,2.45659494 L1.16801449,7.06596994 C0.308639491,7.37846994 -0.199173009,8.31596994 0.0742644913,9.21440744 C0.347701991,10.1519074 1.32426449,10.7378449 2.26176449,10.4253449 C2.30082699,10.4253449 16.441452,5.81596994 16.441452,5.81596994 M4.13676449,9.83940744 C5.03520199,9.52690744 6.24613949,9.13628244 7.49613949,8.74565744 C7.10551449,7.45659494 6.71488949,6.24565744 6.40238949,5.34721994 L3.00395199,6.44096994 L4.13676449,9.83940744 M11.2461395,7.53471994 C12.535202,7.10503244 13.7461395,6.71440744 14.644577,6.40190744 C14.2148895,5.15190744 13.8242645,3.94096994 13.550827,3.04253244 L10.1523895,4.13628244 L11.2461395,7.53471994" id="Shape"></path>
    </g>
</svg>