<svg xmlns="http://www.w3.org/2000/svg" width="24" height="24" viewBox="0 0 24 24">
    <g id="twitter" transform="translate(2.000000, 4.000000)">
        <path d="M20,1.95595634 C19.4222222,2.7561203 18.7555556,3.46737715 17.9555556,4.04527334 C17.9555556,4.178634 17.9555556,4.35644821 17.9555556,4.57871598 C17.9555556,5.6900548 17.8222222,6.80139363 17.4666667,7.86827891 C17.1555556,8.97961774 16.6666667,10.046503 16,11.0244812 C15.3777778,12.0469129 14.5777778,12.935984 13.6888889,13.7361479 C12.7555556,14.4918583 11.6888889,15.1142081 10.4,15.5587436 C9.11111111,16.0477327 7.73333333,16.2700005 6.31111111,16.2700005 C4,16.2700005 1.91111111,15.6476507 0,14.4029512 C0.311111111,14.4474048 0.622222222,14.4918583 0.977777778,14.4918583 C2.88888889,14.4918583 4.57777778,13.8695086 6.08888889,12.7137162 C5.2,12.7137162 4.4,12.4469949 3.68888889,11.9135522 C2.97777778,11.3801096 2.48888889,10.7133063 2.22222222,9.8686888 C2.53333333,9.91314236 2.8,9.95759591 3.02222222,9.95759591 C3.37777778,9.95759591 3.73333333,9.91314236 4.08888889,9.7797817 C3.15555556,9.60196748 2.35555556,9.1129784 1.73333333,8.40172155 C1.11111111,7.64601114 0.8,6.75694008 0.8,5.77896191 L0.8,5.73450836 C1.37777778,6.04568323 2,6.22349744 2.66666667,6.22349744 C2.08888889,5.86786902 1.64444444,5.37887993 1.33333333,4.80098374 C0.977777778,4.178634 0.844444444,3.5118307 0.844444444,2.8450274 C0.844444444,2.089317 1.02222222,1.37806015 1.37777778,0.755710404 C2.4,2.00040989 3.64444444,3.02284162 5.11111111,3.77855202 C6.57777778,4.53426242 8.17777778,4.97879795 9.86666667,5.06770506 C9.77777778,4.71207664 9.73333333,4.40090176 9.73333333,4.08972689 C9.73333333,2.97838806 10.1333333,2.00040989 10.9333333,1.20024594 C11.7333333,0.400081978 12.7111111,0 13.8666667,0 C15.0222222,0 16.0444444,0.444535532 16.8444444,1.28915304 C17.7777778,1.11133883 18.6222222,0.800163957 19.4666667,0.311174872 C19.1555556,1.28915304 18.5333333,2.04486345 17.6444444,2.57830608 C18.4444444,2.48939898 19.2,2.26713121 20,1.95595634 Z" id="Shape"></path>
    </g>
</svg>