<svg xmlns="http://www.w3.org/2000/svg" width="24" height="24" viewBox="0 0 24 24">
  <g id="webhooks" transform="translate(2.000000, 3.000000)">
      <path d="M9.34434462,7.77389841 C8.52419755,9.17986481 7.74310511,10.507722 6.92295805,11.8746337 C6.68863031,12.1870707 6.61052107,12.4604531 6.76673956,12.9291085 C7.23539502,14.1398018 6.57146645,15.3114405 5.36077316,15.6238775 C4.22818912,15.9363144 3.09560507,15.155222 2.86127734,13.9445287 C2.66600423,12.8509993 3.52520592,11.7965245 4.69684458,11.6012514 C4.81400845,11.6012514 4.93117231,11.6012514 5.0873908,11.5621968 C5.67321014,10.5858312 6.25902947,9.57041103 6.92295805,8.51593623 C5.75131938,7.38335219 5.0873908,6.05549503 5.24360929,4.37614628 C5.32171854,3.24356224 5.790374,2.22814206 6.64957569,1.40799499 C8.2508152,-0.193244514 10.7112564,-0.46662687 12.5858783,0.78312104 C14.4214455,1.91570508 15.2415926,4.21992779 14.5386094,6.1726589 C13.9918447,6.01644041 13.4450799,5.86022192 12.8592606,5.70400343 C13.0935883,4.61047401 12.9373699,3.63410846 12.195332,2.81396139 C11.7266766,2.26719668 11.1018026,1.99381433 10.3988194,1.87665046 C8.99285302,1.64232273 7.58688662,2.57963366 7.1963404,3.94654544 C6.72768493,5.50873032 7.43066813,6.79753285 9.34434462,7.77389841 Z M11.7266766,6.13360428 C12.3124959,7.14902445 12.8983152,8.20349925 13.4841346,9.21891943 C16.4522859,8.32066312 18.6783993,9.96095725 19.4985464,11.7184152 C20.4749119,13.8664195 19.8109834,16.3659153 17.8973069,17.6937724 C15.9445758,19.0216296 13.4450799,18.7873019 11.7266766,17.0688985 C12.1562774,16.6783523 12.6249329,16.3268607 13.0935883,15.9363144 C14.8119917,17.0298439 16.2960674,16.9907892 17.4286514,15.6629321 C18.3659623,14.5694027 18.3269077,12.8900539 17.3505422,11.7965245 C16.2179581,10.507722 14.7338825,10.4686673 12.8983152,11.6793606 C12.1562774,10.3515035 11.375185,9.02364632 10.6331472,7.65673454 C10.3988194,7.2271337 10.1254371,6.95375134 9.57867235,6.8756421 C8.64136142,6.68036899 8.05554209,5.89927654 8.01648747,5.00102023 C7.97743284,4.14181855 8.48514293,3.32167148 9.30529,3.0092345 C10.1254371,2.69679753 11.062748,2.97017988 11.6095127,3.63410846 C12.0391135,4.18087317 12.195332,4.84480175 11.9610043,5.50873032 C11.8828951,5.70400343 11.8047858,5.89927654 11.7266766,6.13360428 Z M13.0935883,14.530348 L9.53961773,14.530348 C9.18812613,15.9753691 8.44608831,17.1079531 7.15728578,17.8109363 C6.18092022,18.3967556 5.12644543,18.5529741 3.99386138,18.3967556 C1.88491179,18.045264 0.16650841,16.1706422 0.0102899217,14.022638 C-0.145928567,11.640306 1.49436556,9.49230178 3.72047903,9.02364632 C3.87669752,9.57041103 3.99386138,10.1171757 4.15007987,10.6639404 C2.15829414,11.7184152 1.45531094,13.0072178 2.00207565,14.6475119 C2.50978574,16.0534783 3.91575214,16.8345708 5.47793703,16.5611884 C7.04012191,16.2487514 7.82121436,14.9208943 7.70405049,12.8509993 C9.22718075,12.8509993 10.7112564,12.8119447 12.195332,12.8509993 C12.7811514,12.8509993 13.2107522,12.8119447 13.6403531,12.3042346 C14.3823909,11.4450329 15.710248,11.5231421 16.4522859,12.3042346 C17.2724329,13.1243816 17.2333783,14.4522388 16.3741766,15.2333312 C15.5930842,15.9753691 14.3042816,15.9363144 13.5231892,15.1161674 C13.3669707,14.9599489 13.2498068,14.7646758 13.0935883,14.530348 Z" id="Shape"></path>
  </g>
</svg>