<svg xmlns="http://www.w3.org/2000/svg" width="24" height="24" viewBox="0 0 24 24">
    <g id="yahoo" transform="translate(2.000000, 6.000000)">
        <path d="M19.4180556,2.66187238 C19.0650001,2.70110077 17.6135494,3.01492793 17.1428087,3.13261312 C16.5936112,3.2502983 11.8469753,6.93776745 11.5331482,7.84002054 C11.4546914,8.1538477 11.415463,8.62458844 11.415463,9.09532918 L11.3762346,9.84066869 C11.3762346,10.3506378 11.5331482,11.1744341 11.611605,11.6451749 C11.9254321,11.7236317 14.2006791,11.6451749 14.592963,11.7236317 L14.5537346,12.6651131 C14.1614507,12.6258848 11.2585494,12.6258848 9.61095682,12.6258848 C8.78716052,12.6258848 6.08040125,12.7043415 5.25660495,12.7043415 L5.41351853,11.8020885 C5.88425928,11.7628601 7.76722225,11.8805452 8.1595062,11.4490329 C8.35564817,11.2528909 8.31641978,11.0175205 8.31641978,9.7622119 L8.31641978,9.17378598 C8.31641978,8.89918721 8.31641978,8.34998968 8.23796299,7.87924893 C8.08104941,7.3692798 3.84438273,2.11267484 2.78521606,1.28887854 C2.4713889,1.17119336 0.509969137,0.975051383 0.0392283952,0.857366197 L0,0.0727982935 C0.235370371,-0.044886892 2.4321605,0.112026689 4.55049384,0.0335698983 C5.92348767,-0.044886892 9.10098768,0.0335698983 9.49327163,0.0727982935 L9.41481484,0.778909407 C8.9833025,0.896594592 6.98265434,0.935822987 6.43345681,1.05350817 C7.80645064,3.05415633 9.96401238,5.6824588 10.6308951,6.66316868 C11.023179,6.11397115 14.396821,3.79949584 14.5145062,3.01492793 C13.9653087,2.89724275 12.2392593,2.66187238 11.9646605,2.66187238 L11.8077469,1.75961929 C12.2784877,1.6811625 14.7498766,1.75961929 16.0051852,1.75961929 C17.0643519,1.75961929 19.3788272,1.75961929 20.0064815,1.79884768 L19.4180556,2.66187238" id="Shape"></path>
    </g>
</svg>