<svg xmlns="http://www.w3.org/2000/svg" width="24" height="24" viewBox="0 0 24 24">
    <g id="youtube" transform="translate(2.000000, 5.000000)">
        <path d="M19.659494,2.20904343 C19.4285843,1.33948143 18.7482907,0.654738431 17.8843189,0.422345648 C16.3184912,0 10.0395508,0 10.0395508,0 C10.0395508,0 3.76061037,0 2.1947827,0.422345648 C1.33092499,0.654738431 0.650517256,1.33948143 0.419607588,2.20904343 C0,3.78502473 0,7.07331987 0,7.07331987 C0,7.07331987 0,10.3615009 0.419607588,11.9377104 C0.650517256,12.8071583 1.33092499,13.4919013 2.1947827,13.7244082 C3.76061037,14.1466397 10.0395508,14.1466397 10.0395508,14.1466397 C10.0395508,14.1466397 16.3184912,14.1466397 17.8843189,13.7244082 C18.7482907,13.4919013 19.4285843,12.8071583 19.659494,11.9377104 C20.0791016,10.3615009 20.0791016,7.07331987 20.0791016,7.07331987 C20.0791016,7.07331987 20.0791016,3.78502473 19.659494,2.20904343"></path>
        <polyline fill="#FFFFFF" points="8 9.97102283 13.247947 6.9856255 8 4 8 9.97102283"></polyline>
    </g>
</svg>