<?xml version="1.0" encoding="utf-8"?><svg xmlns="http://www.w3.org/2000/svg" xmlns:xlink="http://www.w3.org/1999/xlink"><symbol viewBox="0 0 24 24" id="mbsy-bing" xmlns="http://www.w3.org/2000/svg"><path d="M20.962 10.735c0-.167-.161-.343-.358-.392L10.03 7.72c-.197-.049-.287.035-.201.186l1.968 3.459c.086.151.31.331.497.4l2.698.989c.188.068.192.188.01.266L3.489 17.924c-.182.077-.206.05-.052-.061l4.423-3.19c.153-.11.28-.337.28-.504l.002-9.668c0-.166-.16-.343-.358-.391L3.36 3.013C3.162 2.964 3 3.06 3 3.227v14.667c0 .167.138.381.306.477l4.498 2.551a.76.76 0 0 0 .627.02l12.209-5.888c.177-.086.321-.292.321-.458v-3.861z"/></symbol><symbol viewBox="0 0 24 24" id="mbsy-caret" xmlns="http://www.w3.org/2000/svg"><path d="M2 7h20L12 17z"/></symbol><symbol viewBox="0 0 24 24" id="mbsy-dwolla" xmlns="http://www.w3.org/2000/svg"><path d="M15.366 9.968c-.75-.946-1.578-1.854-2.13-2.919C12.446 5.55 12.328 3.42 14.38 2c-2.052.907-4.103 1.775-6.154 2.682-1.381.632-2.091 1.736-2.052 3.196.04 1.42.632 2.643 1.539 3.708a95.642 95.642 0 0 0 2.643 2.998c.079.079.158.158.197.237h.04c-.513.197-1.026.433-1.5.63-.354.158-.67.316-1.025.474-1.894.789-2.525 2.327-1.736 4.221C6.766 21.29 7.832 22 9.094 22c.276 0 .552 0 .788-.079h.04c.316-.118.552-.237.789-.394a282.592 282.592 0 0 0 6.075-2.683c1.302-.631 1.814-1.775 1.854-3.156.04-1.104-.355-2.05-1.026-2.998-.67-.946-1.538-1.775-2.248-2.722zM9.725 21.29c-.237.04-.434.04-.631.04-.947 0-1.776-.513-2.13-1.42-.632-1.579-.158-2.723 1.38-3.393l1.065-.474a25.968 25.968 0 0 0 1.539-.67c.039 0 .078 0 .118-.04.158.237.355.513.552.829.276.513.474 1.144.434 1.814-.079 1.223-.75 2.683-2.327 3.314z"/></symbol><symbol viewBox="0 0 24 24" id="mbsy-facebook" xmlns="http://www.w3.org/2000/svg"><path d="M17.4 2.126v3.2h-1.895c-.716 0-1.179.127-1.39.421-.252.295-.378.716-.378 1.306v2.273h3.537l-.463 3.58h-3.074V22h-3.663v-9.095H7V9.326h3.074v-2.61c0-1.516.42-2.653 1.22-3.495.843-.8 1.98-1.221 3.37-1.221 1.178 0 2.062.042 2.736.126z"/></symbol><symbol viewBox="0 0 24 24" id="mbsy-fb-messenger" xmlns="http://www.w3.org/2000/svg"><path d="M11.998 2C6.476 2 2 6.17 2 11.315c0 2.931 1.454 5.546 3.726 7.253v3.552l3.404-1.88c.909.253 1.871.39 2.868.39 5.522 0 9.998-4.17 9.998-9.315S17.52 2 11.998 2zm.993 12.544l-2.546-2.732-4.967 2.732 5.464-5.837 2.608 2.732 4.906-2.732-5.465 5.837z"/></symbol><symbol viewBox="0 0 24 24" id="mbsy-google" xmlns="http://www.w3.org/2000/svg"><path d="M21.429 10.143c.095.667.19 1.333.19 2.095C21.619 17.952 17.762 22 12 22 6.476 22 2 17.524 2 12S6.476 2 12 2c2.714 0 4.952 1 6.714 2.619l-2.857 2.81c-1.047-1-2.38-1.524-3.857-1.524-3.286 0-5.952 2.81-5.952 6.095 0 3.286 2.666 6.095 5.952 6.095 3 0 5.048-1.714 5.476-4.047H12v-3.905h9.429z"/></symbol><symbol viewBox="0 0 24 24" id="mbsy-google-ads" xmlns="http://www.w3.org/2000/svg"><g transform="translate(2 3)" fill-rule="nonzero" fill="none"><path fill="#FBBC04" d="M.413 13.341L7.06 1.825l5.761 3.326-6.648 11.516z"/><path d="M19.526 13.3L12.874 1.78A3.326 3.326 0 1 0 7.113 5.1l6.652 11.52a3.326 3.326 0 0 0 5.805-3.25l-.044-.076v.007z" fill="#4285F4"/><circle fill="#34A853" cx="3.326" cy="14.978" r="3.326"/></g></symbol><symbol viewBox="0 0 24 24" id="mbsy-google-plus" xmlns="http://www.w3.org/2000/svg"><path d="M7 11v2.4h3.97c-.16 1.029-1.2 3.02-3.97 3.02-2.39 0-4.34-1.979-4.34-4.42 0-2.44 1.95-4.42 4.34-4.42 1.36 0 2.27.58 2.79 1.08l1.9-1.83C10.47 5.69 8.89 5 7 5c-3.87 0-7 3.13-7 7s3.13 7 7 7c4.04 0 6.721-2.84 6.721-6.84 0-.46-.051-.81-.111-1.16H7zm0 0l17 2h-3v3h-2v-3h-3v-2h3V8h2v3h3v2z" fill-rule="evenodd" clip-rule="evenodd"/></symbol><symbol viewBox="0 0 24 24" id="mbsy-instagram" xmlns="http://www.w3.org/2000/svg"><path d="M12.037 2c-2.726 0-3.068.012-4.139.06-1.068.05-1.797.219-2.436.467-.66.256-1.22.6-1.777 1.158a4.92 4.92 0 0 0-1.158 1.777c-.248.639-.418 1.368-.467 2.436C2.012 8.97 2 9.311 2 12.037c0 2.725.012 3.067.06 4.138.05 1.068.219 1.797.467 2.436.256.66.6 1.22 1.158 1.777a4.92 4.92 0 0 0 1.777 1.158c.639.248 1.368.418 2.436.467 1.071.048 1.413.06 4.139.06 2.725 0 3.067-.012 4.138-.06 1.068-.05 1.797-.219 2.436-.467a4.92 4.92 0 0 0 1.777-1.158 4.92 4.92 0 0 0 1.158-1.777c.248-.639.418-1.368.467-2.436.048-1.071.06-1.413.06-4.138 0-2.726-.012-3.068-.06-4.139-.05-1.068-.219-1.797-.467-2.436a4.92 4.92 0 0 0-1.158-1.777 4.92 4.92 0 0 0-1.777-1.158c-.639-.248-1.368-.418-2.436-.467-1.071-.048-1.413-.06-4.138-.06zm0 1.808c2.68 0 2.997.01 4.055.059.979.045 1.51.208 1.864.345.468.183.803.4 1.154.751.351.351.568.686.75 1.154.138.354.301.885.346 1.864.048 1.058.059 1.376.059 4.056s-.01 2.997-.059 4.055c-.045.979-.208 1.51-.345 1.864a3.11 3.11 0 0 1-.751 1.154 3.11 3.11 0 0 1-1.154.75c-.354.138-.885.301-1.864.346-1.058.048-1.375.059-4.055.059-2.68 0-2.998-.01-4.056-.059-.979-.045-1.51-.208-1.864-.345a3.11 3.11 0 0 1-1.154-.751 3.11 3.11 0 0 1-.75-1.154c-.138-.354-.301-.885-.346-1.864-.048-1.058-.059-1.376-.059-4.055 0-2.68.01-2.998.059-4.056.045-.979.208-1.51.345-1.864.183-.468.4-.803.751-1.154a3.11 3.11 0 0 1 1.154-.75c.354-.138.885-.301 1.864-.346 1.058-.048 1.376-.059 4.056-.059z"/><path d="M12.037 15.382a3.345 3.345 0 1 1 0-6.691 3.345 3.345 0 0 1 0 6.691zm0-8.5a5.154 5.154 0 1 0 0 10.308 5.154 5.154 0 0 0 0-10.307zM18.598 6.679a1.204 1.204 0 1 1-2.408 0 1.204 1.204 0 0 1 2.408 0"/></symbol><symbol viewBox="0 0 24 24" id="mbsy-klout" xmlns="http://www.w3.org/2000/svg"><path d="M5.55 17.36H2l4.102-5.798L2.316 6h3.47l2.722 4.26h1.223v2.643H8.508L5.55 17.36m0 0H2l4.102-5.798L2.316 6h3.47l2.722 4.26h1.223v2.643H8.508L5.55 17.36m12.898 0l-2.958-4.457h-2.051v4.457h-2.84V6h2.84v4.26h2.051L18.251 6h3.432l-3.747 5.562 4.062 5.798h-3.55"/></symbol><symbol viewBox="0 0 24 24" id="mbsy-linkedin" xmlns="http://www.w3.org/2000/svg"><path d="M6.521 8.256V21.18H2.228V8.256h4.293zm.274-4.018c0 .639-.183 1.187-.64 1.598-.456.411-1.05.64-1.78.64-.731 0-1.325-.229-1.736-.64C2.183 5.425 2 4.877 2 4.238c0-.64.183-1.188.64-1.599C3.095 2.23 3.69 2 4.42 2c.731 0 1.279.228 1.736.64.41.41.639.958.639 1.598zm15.207 9.498v7.444h-4.293v-6.941c0-.914-.137-1.599-.502-2.147-.365-.502-.913-.776-1.644-.776-.548 0-1.005.183-1.37.457-.411.32-.685.685-.868 1.141-.091.229-.137.594-.137 1.05v7.216H8.896c.045-3.47.045-6.302.045-8.448V8.85l-.045-.594h4.292v1.873c.183-.274.32-.548.503-.731.182-.228.456-.457.776-.685a3.578 3.578 0 0 1 1.096-.594c.457-.137.959-.182 1.507-.182 1.507 0 2.694.502 3.608 1.461.913 1.005 1.324 2.466 1.324 4.338z"/></symbol><symbol viewBox="0 0 24 24" id="mbsy-paypal" xmlns="http://www.w3.org/2000/svg"><path d="M17.678 3.502C16.729 2.435 15.029 2 12.856 2H6.53a.93.93 0 0 0-.909.751L3.014 19.154c-.08.316.197.633.513.633h3.914l.988-6.127-.04.198a.9.9 0 0 1 .91-.751h1.857c3.636 0 6.482-1.463 7.312-5.652.04-.119.04-.238.08-.396.236-1.541 0-2.608-.87-3.557m.87 3.557c-.04.158-.04.277-.08.396-.83 4.19-3.676 5.652-7.312 5.652H9.298a.9.9 0 0 0-.909.75l-.948 5.93-.277 1.66a.5.5 0 0 0 .474.553h3.28c.396 0 .752-.277.791-.672l.04-.158.632-3.874.04-.197a.764.764 0 0 1 .75-.672h.515c3.201 0 5.691-1.265 6.403-4.94.316-1.542.158-2.807-.633-3.716a4.023 4.023 0 0 0-.909-.712m-.87-.316a6.318 6.318 0 0 0-.83-.198 10.406 10.406 0 0 0-1.62-.118h-4.98a.745.745 0 0 0-.316.079.76.76 0 0 0-.435.593L8.429 13.66l-.04.198a.9.9 0 0 1 .91-.751h1.857c3.636 0 6.482-1.463 7.312-5.652.04-.119.04-.238.08-.396-.238-.079-.436-.197-.712-.276-.04 0-.119-.04-.158-.04"/></symbol><symbol viewBox="0 0 24 24" id="mbsy-pinterest" xmlns="http://www.w3.org/2000/svg"><path d="M2 12.001c.052-2.838 1.054-5.209 3.008-7.109C6.962 2.992 9.292 2.026 12 2c2.916.052 5.306 1.048 7.168 2.988S21.974 9.267 22 12.001c-.052 2.812-1.054 5.177-3.008 7.09C17.038 21.005 14.708 21.975 12 22a9.592 9.592 0 0 1-2.812-.43c.182-.286.364-.612.546-.976.208-.442.468-1.276.782-2.5.078-.338.196-.794.352-1.369.182.313.494.599.938.86 1.172.547 2.408.495 3.71-.155 1.354-.783 2.292-1.993 2.812-3.633.468-1.718.41-3.314-.176-4.784-.586-1.472-1.634-2.533-3.144-3.185-1.9-.546-3.75-.488-5.546.176-1.796.664-3.046 1.805-3.75 3.419A7.963 7.963 0 0 0 5.38 11.2c-.04.586-.02 1.158.058 1.718s.274 1.062.586 1.504c.312.442.73.782 1.25 1.016.13.052.234.052.312 0 .104-.052.208-.26.312-.624.104-.364.144-.612.118-.742a4.777 4.777 0 0 0-.156-.274c-.546-.886-.73-1.816-.546-2.792.182-.976.586-1.804 1.21-2.48a5.43 5.43 0 0 1 3.378-1.406c1.288-.078 2.39.274 3.3 1.054.494.572.814 1.262.956 2.07a6.347 6.347 0 0 1 0 2.324 6.99 6.99 0 0 1-.762 2.09c-.652 1.016-1.42 1.536-2.304 1.562-.52-.026-.944-.228-1.27-.606-.326-.378-.424-.814-.292-1.308.052-.286.208-.846.468-1.68s.404-1.458.43-1.874c-.078-.99-.534-1.498-1.368-1.524-.652.078-1.132.372-1.446.878-.314.506-.482 1.088-.508 1.738.078.756.196 1.276.352 1.562-.286 1.172-.508 2.11-.664 2.812a79.82 79.82 0 0 0-.43 1.68c-.234.939-.364 1.655-.39 2.149v1.094c-1.848-.86-3.308-2.102-4.374-3.73C2.534 15.783 2 13.979 2 12z"/></symbol><symbol viewBox="0 0 24 24" id="mbsy-slack" xmlns="http://www.w3.org/2000/svg"><path d="M14.965 3.246c-.313-.938-1.328-1.446-2.266-1.172-.898.312-1.445 1.328-1.133 2.265l4.61 14.18a1.784 1.784 0 0 0 2.187 1.094c.938-.274 1.524-1.29 1.211-2.227l-4.61-14.14M7.817 5.55c-.312-.937-1.289-1.445-2.226-1.132-.938.312-1.445 1.289-1.133 2.226l4.57 14.18c.352.86 1.29 1.367 2.188 1.094.937-.274 1.523-1.25 1.21-2.188 0-.039-4.609-14.18-4.609-14.18m12.93 9.414a1.804 1.804 0 0 0 1.172-2.226c-.312-.938-1.328-1.445-2.266-1.172l-14.18 4.61c-.859.312-1.366 1.288-1.093 2.187.273.937 1.289 1.523 2.227 1.21l14.14-4.609M8.441 18.988l3.399-1.133c-.313-.898-.703-2.11-1.094-3.36L7.348 15.59l1.093 3.399m7.149-2.344c1.25-.39 2.46-.781 3.36-1.094-.274-.937-.665-2.109-1.094-3.398l-3.36 1.094 1.094 3.398m2.851-8.828c.938-.273 1.446-1.29 1.133-2.227-.312-.937-1.289-1.445-2.226-1.132L3.168 9.066c-.86.312-1.367 1.25-1.094 2.148.274.938 1.25 1.524 2.188 1.211.039 0 14.18-4.609 14.18-4.609M6.136 11.839c.898-.312 2.11-.703 3.36-1.093-.391-1.29-.782-2.5-1.095-3.399L5.004 8.441l1.133 3.398m7.11-2.304c1.288-.43 2.5-.82 3.398-1.133-.43-1.25-.82-2.461-1.094-3.36l-3.399 1.094 1.094 3.399"/></symbol><symbol viewBox="0 0 24 24" id="mbsy-tumblr" xmlns="http://www.w3.org/2000/svg"><path d="M13.983 22c-3.007 0-5.25-1.547-5.25-5.25v-5.928H6v-3.21C9.009 6.83 10.266 4.241 10.412 2h3.123v5.09h3.644v3.732h-3.644v5.162c0 1.548.78 2.083 2.024 2.083h1.765V22h-3.341"/></symbol><symbol viewBox="0 0 24 24" id="mbsy-twitter" xmlns="http://www.w3.org/2000/svg"><path d="M22 5.956c-.578.8-1.244 1.511-2.044 2.09v.533c0 1.111-.134 2.222-.49 3.29A10.734 10.734 0 0 1 18 15.023c-.622 1.023-1.422 1.912-2.311 2.712-.933.756-2 1.378-3.289 1.823-1.289.489-2.667.711-4.089.711-2.311 0-4.4-.622-6.311-1.867.311.044.622.089.978.089 1.91 0 3.6-.622 5.11-1.778a3.9 3.9 0 0 1-2.4-.8c-.71-.534-1.2-1.2-1.466-2.045.311.044.578.089.8.089.356 0 .711-.045 1.067-.178-.933-.178-1.733-.667-2.356-1.378A4.034 4.034 0 0 1 2.8 9.779v-.044c.578.31 1.2.488 1.867.488a3.721 3.721 0 0 1-1.334-1.422c-.355-.622-.489-1.29-.489-1.956 0-.756.178-1.467.534-2.09A11.783 11.783 0 0 0 7.11 7.78c1.467.755 3.067 1.2 4.756 1.289A3.963 3.963 0 0 1 12.934 5.2C13.733 4.4 14.71 4 15.866 4c1.155 0 2.177.445 2.977 1.29a8.153 8.153 0 0 0 2.623-.979c-.311.978-.934 1.734-1.823 2.267.8-.089 1.556-.31 2.356-.622z"/></symbol><symbol viewBox="0 0 24 24" id="mbsy-webhooks" xmlns="http://www.w3.org/2000/svg"><path d="M11.344 10.774a380.692 380.692 0 0 1-2.421 4.1c-.234.313-.312.586-.156 1.055.468 1.21-.196 2.382-1.406 2.695-1.133.312-2.265-.469-2.5-1.68-.195-1.093.664-2.147 1.836-2.343.117 0 .234 0 .39-.039.586-.976 1.172-1.992 1.836-3.046-1.172-1.133-1.836-2.46-1.68-4.14.079-1.132.547-2.148 1.407-2.968 1.6-1.601 4.061-1.875 5.936-.625 1.835 1.133 2.656 3.437 1.953 5.39a96.5 96.5 0 0 0-1.68-.469c.235-1.094.078-2.07-.664-2.89-.468-.547-1.093-.82-1.796-.937-1.406-.235-2.812.703-3.203 2.07-.468 1.562.235 2.85 2.148 3.827zm2.383-1.64c.585 1.015 1.171 2.07 1.757 3.085 2.968-.898 5.194.742 6.015 2.5.976 2.147.312 4.647-1.602 5.975-1.952 1.328-4.452 1.093-6.17-.625.43-.39.898-.742 1.367-1.133 1.718 1.094 3.202 1.055 4.335-.273.937-1.094.898-2.773-.078-3.866-1.133-1.29-2.617-1.328-4.453-.118-.742-1.327-1.523-2.655-2.265-4.022-.234-.43-.508-.703-1.054-.781-.938-.196-1.523-.977-1.563-1.875-.039-.86.47-1.68 1.29-1.992.82-.312 1.757-.039 2.304.625.43.547.585 1.21.351 1.875-.078.195-.156.39-.234.625zm1.367 8.396H11.54c-.352 1.445-1.094 2.578-2.383 3.28-.976.587-2.03.743-3.163.587-2.11-.352-3.827-2.226-3.984-4.374-.156-2.383 1.484-4.53 3.71-5 .157.547.274 1.094.43 1.64-1.992 1.055-2.695 2.344-2.148 3.985.508 1.405 1.914 2.187 3.476 1.913 1.562-.312 2.343-1.64 2.226-3.71 1.523 0 3.007-.04 4.491 0 .586 0 1.016-.04 1.445-.547.742-.859 2.07-.78 2.812 0 .82.82.781 2.148-.078 2.93-.78.741-2.07.702-2.85-.118-.157-.156-.274-.351-.43-.586z"/></symbol><symbol viewBox="0 0 24 24" id="mbsy-yahoo" xmlns="http://www.w3.org/2000/svg"><path d="M21.418 8.662c-.353.04-1.804.353-2.275.47-.55.118-5.296 3.806-5.61 4.708-.078.314-.118.785-.118 1.255l-.039.746c0 .51.157 1.333.236 1.804.313.079 2.589 0 2.981.079l-.04.941c-.392-.04-3.294-.04-4.942-.04-.824 0-3.53.08-4.354.08l.157-.903c.47-.04 2.353.079 2.746-.353.196-.196.156-.431.156-1.687v-.588c0-.275 0-.824-.078-1.295-.157-.51-4.394-5.766-5.453-6.59-.314-.118-2.275-.314-2.746-.432L2 6.073c.235-.118 2.432.039 4.55-.04 1.373-.078 4.551 0 4.943.04l-.078.706c-.432.118-2.432.157-2.982.275 1.373 2 3.531 4.628 4.198 5.61.392-.55 3.766-2.865 3.884-3.65-.55-.117-2.276-.352-2.55-.352l-.157-.902c.47-.079 2.942 0 4.197 0 1.06 0 3.374 0 4.001.039l-.588.863"/></symbol><symbol viewBox="0 0 24 24" id="mbsy-youtube" xmlns="http://www.w3.org/2000/svg"><path d="M21.66 7.209a2.523 2.523 0 0 0-1.776-1.787C18.318 5 12.04 5 12.04 5s-6.28 0-7.845.422A2.523 2.523 0 0 0 2.42 7.21C2 8.785 2 12.073 2 12.073s0 3.289.42 4.865c.23.87.91 1.554 1.775 1.786 1.566.423 7.845.423 7.845.423s6.278 0 7.844-.423a2.523 2.523 0 0 0 1.775-1.786c.42-1.576.42-4.865.42-4.865s0-3.288-.42-4.864"/><path fill="#FFF" d="M10 14.971l5.248-2.985L10 9v5.971"/></symbol><symbol viewBox="0 0 24 24" id="md-add" xmlns="http://www.w3.org/2000/svg"><path d="M19 13h-6v6h-2v-6H5v-2h6V5h2v6h6v2z"/></symbol><symbol viewBox="0 0 24 24" id="md-arrow-back" xmlns="http://www.w3.org/2000/svg"><path d="M20 11H7.83l5.59-5.59L12 4l-8 8 8 8 1.41-1.41L7.83 13H20v-2z"/></symbol><symbol viewBox="0 0 24 24" id="md-arrow-down" xmlns="http://www.w3.org/2000/svg"><path fill="#010101" d="M20 12l-1.41-1.41L13 16.17V4h-2v12.17l-5.58-5.59L4 12l8 8 8-8z"/></symbol><symbol viewBox="0 0 24 24" id="md-arrow-drop-down" xmlns="http://www.w3.org/2000/svg"><path d="M7 10l5 5 5-5z"/></symbol><symbol viewBox="0 0 24 24" id="md-arrow-drop-up" xmlns="http://www.w3.org/2000/svg"><path d="M7 14l5-5 5 5z"/></symbol><symbol viewBox="0 0 24 24" id="md-arrow-forward" xmlns="http://www.w3.org/2000/svg"><path d="M12 4l-1.41 1.41L16.17 11H4v2h12.17l-5.58 5.59L12 20l8-8z"/></symbol><symbol viewBox="0 0 24 24" id="md-arrow-up" xmlns="http://www.w3.org/2000/svg"><path d="M4 12l1.41 1.41L11 7.83V20h2V7.83l5.58 5.59L20 12l-8-8-8 8z"/></symbol><symbol viewBox="0 0 24 24" id="md-assessment" xmlns="http://www.w3.org/2000/svg"><path d="M19 3H5c-1.1 0-2 .9-2 2v14c0 1.1.9 2 2 2h14c1.1 0 2-.9 2-2V5c0-1.1-.9-2-2-2zM9 17H7v-7h2v7zm4 0h-2V7h2v10zm4 0h-2v-4h2v4z"/></symbol><symbol viewBox="0 0 24 24" id="md-blank-link" xmlns="http://www.w3.org/2000/svg"><path d="M19 19H5V5h7V3H5a2 2 0 0 0-2 2v14a2 2 0 0 0 2 2h14c1.1 0 2-.9 2-2v-7h-2v7zM14 3v2h3.59l-9.83 9.83 1.41 1.41L19 6.41V10h2V3h-7z"/></symbol><symbol viewBox="0 0 24 24" id="md-chart" xmlns="http://www.w3.org/2000/svg"><path d="M3.5 18.49l6-6.01 4 4L22 6.92l-1.41-1.41-7.09 7.97-4-4L2 16.99z"/></symbol><symbol viewBox="0 0 24 24" id="md-chat-bubble" xmlns="http://www.w3.org/2000/svg"><path d="M20 2H4c-1.1 0-2 .9-2 2v18l4-4h14c1.1 0 2-.9 2-2V4c0-1.1-.9-2-2-2z"/></symbol><symbol viewBox="0 0 24 24" id="md-check" xmlns="http://www.w3.org/2000/svg"><path d="M9 16.17L4.83 12l-1.42 1.41L9 19 21 7l-1.41-1.41z"/></symbol><symbol viewBox="0 0 24 24" id="md-check-circle-outline" xmlns="http://www.w3.org/2000/svg"><path fill="none" d="M0 0h24v24H0V0zm0 0h24v24H0V0z"/><path d="M16.59 7.58L10 14.17l-3.59-3.58L5 12l5 5 8-8zM12 2C6.48 2 2 6.48 2 12s4.48 10 10 10 10-4.48 10-10S17.52 2 12 2zm0 18c-4.42 0-8-3.58-8-8s3.58-8 8-8 8 3.58 8 8-3.58 8-8 8z"/></symbol><symbol viewBox="0 0 24 24" id="md-checkbox-checked" xmlns="http://www.w3.org/2000/svg"><path d="M19 3H5a2 2 0 0 0-2 2v14a2 2 0 0 0 2 2h14a2 2 0 0 0 2-2V5a2 2 0 0 0-2-2zm-9 14l-5-5 1.41-1.41L10 14.17l7.59-7.59L19 8l-9 9z"/></symbol><symbol viewBox="0 0 24 24" id="md-checkbox-ind" xmlns="http://www.w3.org/2000/svg"><path d="M19 3H5c-1.1 0-2 .9-2 2v14c0 1.1.9 2 2 2h14c1.1 0 2-.9 2-2V5c0-1.1-.9-2-2-2zm-2 10H7v-2h10v2z"/></symbol><symbol viewBox="0 0 24 24" id="md-checkbox-unchecked" xmlns="http://www.w3.org/2000/svg"><path d="M19 5v14H5V5h14m0-2H5c-1.1 0-2 .9-2 2v14c0 1.1.9 2 2 2h14c1.1 0 2-.9 2-2V5c0-1.1-.9-2-2-2z"/></symbol><symbol viewBox="0 0 24 24" id="md-chevron-left" xmlns="http://www.w3.org/2000/svg"><path d="M15.41 7.41L14 6l-6 6 6 6 1.41-1.41L10.83 12z"/></symbol><symbol viewBox="0 0 24 24" id="md-chevron-right" xmlns="http://www.w3.org/2000/svg"><path d="M10 6L8.59 7.41 13.17 12l-4.58 4.59L10 18l6-6z"/></symbol><symbol viewBox="0 0 24 24" id="md-close" xmlns="http://www.w3.org/2000/svg"><path d="M19 6.41L17.59 5 12 10.59 6.41 5 5 6.41 10.59 12 5 17.59 6.41 19 12 13.41 17.59 19 19 17.59 13.41 12z"/></symbol><symbol viewBox="0 0 24 24" id="md-cloud" xmlns="http://www.w3.org/2000/svg"><path d="M19.35 10.04A7.49 7.49 0 0 0 12 4C9.11 4 6.6 5.64 5.35 8.04A5.994 5.994 0 0 0 0 14c0 3.31 2.69 6 6 6h13c2.76 0 5-2.24 5-5 0-2.64-2.05-4.78-4.65-4.96z"/></symbol><symbol viewBox="0 0 24 24" id="md-compare" xmlns="http://www.w3.org/2000/svg"><path d="M9.01 14H2v2h7.01v3L13 15l-3.99-4v3zm5.98-1v-3H22V8h-7.01V5L11 9l3.99 4z"/></symbol><symbol viewBox="0 0 24 24" id="md-contact" xmlns="http://www.w3.org/2000/svg"><path d="M22 3H2C.9 3 0 3.9 0 5v14c0 1.1.9 2 2 2h20c1.1 0 1.99-.9 1.99-2L24 5c0-1.1-.9-2-2-2zM8 6c1.66 0 3 1.34 3 3s-1.34 3-3 3-3-1.34-3-3 1.34-3 3-3zm6 12H2v-1c0-2 4-3.1 6-3.1s6 1.1 6 3.1v1zm3.85-4h1.64L21 16l-1.99 1.99A7.512 7.512 0 0 1 16.28 14c-.18-.64-.28-1.31-.28-2s.1-1.36.28-2a7.474 7.474 0 0 1 2.73-3.99L21 8l-1.51 2h-1.64c-.22.63-.35 1.3-.35 2s.13 1.37.35 2z"/></symbol><symbol viewBox="0 0 24 24" id="md-copy" xmlns="http://www.w3.org/2000/svg"><path d="M16 1H4c-1.1 0-2 .9-2 2v14h2V3h12V1zm3 4H8c-1.1 0-2 .9-2 2v14c0 1.1.9 2 2 2h11c1.1 0 2-.9 2-2V7c0-1.1-.9-2-2-2zm0 16H8V7h11v14z"/></symbol><symbol viewBox="0 0 24 24" id="md-credit-card" xmlns="http://www.w3.org/2000/svg"><path d="M20 4H4c-1.11 0-1.99.89-1.99 2L2 18c0 1.11.89 2 2 2h16c1.11 0 2-.89 2-2V6c0-1.11-.89-2-2-2zm0 14H4v-6h16v6zm0-10H4V6h16v2z"/></symbol><symbol viewBox="0 0 24 24" id="md-danger" xmlns="http://www.w3.org/2000/svg"><path d="M12 2C6.48 2 2 6.48 2 12s4.48 10 10 10 10-4.48 10-10S17.52 2 12 2zm1 15h-2v-2h2v2zm0-4h-2V7h2v6z"/></symbol><symbol viewBox="0 0 24 24" id="md-dashboard" xmlns="http://www.w3.org/2000/svg"><path d="M3 13h8V3H3v10zm0 8h8v-6H3v6zm10 0h8V11h-8v10zm0-18v6h8V3h-8z"/></symbol><symbol viewBox="0 0 24 24" id="md-date" xmlns="http://www.w3.org/2000/svg"><path d="M9 11H7v2h2v-2zm4 0h-2v2h2v-2zm4 0h-2v2h2v-2zm2-7h-1V2h-2v2H8V2H6v2H5c-1.11 0-1.99.9-1.99 2L3 20a2 2 0 0 0 2 2h14c1.1 0 2-.9 2-2V6c0-1.1-.9-2-2-2zm0 16H5V9h14v11z"/></symbol><symbol viewBox="0 0 24 24" id="md-delete" xmlns="http://www.w3.org/2000/svg"><path d="M6 19c0 1.1.9 2 2 2h8c1.1 0 2-.9 2-2V7H6v12zM19 4h-3.5l-1-1h-5l-1 1H5v2h14V4z"/></symbol><symbol viewBox="0 0 24 24" id="md-domain" xmlns="http://www.w3.org/2000/svg"><path d="M12 7V3H2v18h20V7H12zM6 19H4v-2h2v2zm0-4H4v-2h2v2zm0-4H4V9h2v2zm0-4H4V5h2v2zm4 12H8v-2h2v2zm0-4H8v-2h2v2zm0-4H8V9h2v2zm0-4H8V5h2v2zm10 12h-8v-2h2v-2h-2v-2h2v-2h-2V9h8v10zm-2-8h-2v2h2v-2zm0 4h-2v2h2v-2z"/></symbol><symbol viewBox="0 0 24 24" id="md-download" xmlns="http://www.w3.org/2000/svg"><path d="M19.35 10.04A7.49 7.49 0 0 0 12 4C9.11 4 6.6 5.64 5.35 8.04A5.994 5.994 0 0 0 0 14c0 3.31 2.69 6 6 6h13c2.76 0 5-2.24 5-5 0-2.64-2.05-4.78-4.65-4.96zM17 13l-5 5-5-5h3V9h4v4h3z"/></symbol><symbol viewBox="0 0 24 24" id="md-edit" xmlns="http://www.w3.org/2000/svg"><path d="M3 17.25V21h3.75L17.81 9.94l-3.75-3.75L3 17.25zM20.71 7.04a.996.996 0 0 0 0-1.41l-2.34-2.34a.996.996 0 0 0-1.41 0l-1.83 1.83 3.75 3.75 1.83-1.83z"/></symbol><symbol viewBox="0 0 24 24" id="md-email" xmlns="http://www.w3.org/2000/svg"><path d="M20 4H4c-1.1 0-1.99.9-1.99 2L2 18c0 1.1.9 2 2 2h16c1.1 0 2-.9 2-2V6c0-1.1-.9-2-2-2zm0 4l-8 5-8-5V6l8 5 8-5v2z"/></symbol><symbol viewBox="0 0 24 24" id="md-favorite" xmlns="http://www.w3.org/2000/svg"><path d="M12 21.35l-1.45-1.32C5.4 15.36 2 12.28 2 8.5 2 5.42 4.42 3 7.5 3c1.74 0 3.41.81 4.5 2.09C13.09 3.81 14.76 3 16.5 3 19.58 3 22 5.42 22 8.5c0 3.78-3.4 6.86-8.55 11.54L12 21.35z"/></symbol><symbol viewBox="0 0 24 24" id="md-file" xmlns="http://www.w3.org/2000/svg"><path d="M6 2c-1.1 0-1.99.9-1.99 2L4 20c0 1.1.89 2 1.99 2H18c1.1 0 2-.9 2-2V8l-6-6H6zm7 7V3.5L18.5 9H13z"/></symbol><symbol viewBox="0 0 24 24" id="md-filter" xmlns="http://www.w3.org/2000/svg"><path d="M10 18h4v-2h-4v2zM3 6v2h18V6H3zm3 7h12v-2H6v2z"/></symbol><symbol viewBox="0 0 24 24" id="md-fingerprint" xmlns="http://www.w3.org/2000/svg"><path d="M17.81 4.47c-.08 0-.16-.02-.23-.06C15.66 3.42 14 3 12.01 3c-1.98 0-3.86.47-5.57 1.41-.24.13-.54.04-.68-.2a.506.506 0 0 1 .2-.68C7.82 2.52 9.86 2 12.01 2c2.13 0 3.99.47 6.03 1.52.25.13.34.43.21.67a.49.49 0 0 1-.44.28zM3.5 9.72a.499.499 0 0 1-.41-.79c.99-1.4 2.25-2.5 3.75-3.27C9.98 4.04 14 4.03 17.15 5.65c1.5.77 2.76 1.86 3.75 3.25a.5.5 0 0 1-.12.7c-.23.16-.54.11-.7-.12a9.388 9.388 0 0 0-3.39-2.94c-2.87-1.47-6.54-1.47-9.4.01-1.36.7-2.5 1.7-3.4 2.96-.08.14-.23.21-.39.21zm6.25 12.07a.47.47 0 0 1-.35-.15c-.87-.87-1.34-1.43-2.01-2.64-.69-1.23-1.05-2.73-1.05-4.34 0-2.97 2.54-5.39 5.66-5.39s5.66 2.42 5.66 5.39c0 .28-.22.5-.5.5s-.5-.22-.5-.5c0-2.42-2.09-4.39-4.66-4.39-2.57 0-4.66 1.97-4.66 4.39 0 1.44.32 2.77.93 3.85.64 1.15 1.08 1.64 1.85 2.42.19.2.19.51 0 .71-.11.1-.24.15-.37.15zm7.17-1.85c-1.19 0-2.24-.3-3.1-.89-1.49-1.01-2.38-2.65-2.38-4.39 0-.28.22-.5.5-.5s.5.22.5.5c0 1.41.72 2.74 1.94 3.56.71.48 1.54.71 2.54.71.24 0 .64-.03 1.04-.1.27-.05.53.13.58.41.05.27-.13.53-.41.58-.57.11-1.07.12-1.21.12zM14.91 22c-.04 0-.09-.01-.13-.02-1.59-.44-2.63-1.03-3.72-2.1a7.297 7.297 0 0 1-2.17-5.22c0-1.62 1.38-2.94 3.08-2.94 1.7 0 3.08 1.32 3.08 2.94 0 1.07.93 1.94 2.08 1.94s2.08-.87 2.08-1.94c0-3.77-3.25-6.83-7.25-6.83-2.84 0-5.44 1.58-6.61 4.03-.39.81-.59 1.76-.59 2.8 0 .78.07 2.01.67 3.61.1.26-.03.55-.29.64-.26.1-.55-.04-.64-.29a11.14 11.14 0 0 1-.73-3.96c0-1.2.23-2.29.68-3.24 1.33-2.79 4.28-4.6 7.51-4.6 4.55 0 8.25 3.51 8.25 7.83 0 1.62-1.38 2.94-3.08 2.94s-3.08-1.32-3.08-2.94c0-1.07-.93-1.94-2.08-1.94s-2.08.87-2.08 1.94c0 1.71.66 3.31 1.87 4.51.95.94 1.86 1.46 3.27 1.85.27.07.42.35.35.61-.05.23-.26.38-.47.38z"/></symbol><symbol viewBox="0 0 24 24" id="md-flag" xmlns="http://www.w3.org/2000/svg"><path d="M14.4 6L14 4H5v17h2v-7h5.6l.4 2h7V6z"/></symbol><symbol viewBox="0 0 24 24" id="md-globe" xmlns="http://www.w3.org/2000/svg"><path d="M11.99 2C6.47 2 2 6.48 2 12s4.47 10 9.99 10C17.52 22 22 17.52 22 12S17.52 2 11.99 2zm6.93 6h-2.95a15.65 15.65 0 0 0-1.38-3.56A8.03 8.03 0 0 1 18.92 8zM12 4.04c.83 1.2 1.48 2.53 1.91 3.96h-3.82c.43-1.43 1.08-2.76 1.91-3.96zM4.26 14C4.1 13.36 4 12.69 4 12s.1-1.36.26-2h3.38c-.08.66-.14 1.32-.14 2 0 .68.06 1.34.14 2H4.26zm.82 2h2.95c.32 1.25.78 2.45 1.38 3.56A7.987 7.987 0 0 1 5.08 16zm2.95-8H5.08a7.987 7.987 0 0 1 4.33-3.56A15.65 15.65 0 0 0 8.03 8zM12 19.96c-.83-1.2-1.48-2.53-1.91-3.96h3.82c-.43 1.43-1.08 2.76-1.91 3.96zM14.34 14H9.66c-.09-.66-.16-1.32-.16-2 0-.68.07-1.35.16-2h4.68c.09.65.16 1.32.16 2 0 .68-.07 1.34-.16 2zm.25 5.56c.6-1.11 1.06-2.31 1.38-3.56h2.95a8.03 8.03 0 0 1-4.33 3.56zM16.36 14c.08-.66.14-1.32.14-2 0-.68-.06-1.34-.14-2h3.38c.16.64.26 1.31.26 2s-.1 1.36-.26 2h-3.38z"/></symbol><symbol viewBox="0 0 24 24" id="md-group-add" xmlns="http://www.w3.org/2000/svg"><path d="M8 10H5V7H3v3H0v2h3v3h2v-3h3v-2zm10 1c1.66 0 2.99-1.34 2.99-3S19.66 5 18 5c-.32 0-.63.05-.91.14.57.81.9 1.79.9 2.86s-.34 2.04-.9 2.86c.28.09.59.14.91.14zm-5 0c1.66 0 2.99-1.34 2.99-3S14.66 5 13 5c-1.66 0-3 1.34-3 3s1.34 3 3 3zm6.62 2.16c.83.73 1.38 1.66 1.38 2.84v2h3v-2c0-1.54-2.37-2.49-4.38-2.84zM13 13c-2 0-6 1-6 3v2h12v-2c0-2-4-3-6-3z"/></symbol><symbol viewBox="0 0 24 24" id="md-help" xmlns="http://www.w3.org/2000/svg"><path d="M11 18h2v-2h-2v2zm1-16C6.48 2 2 6.48 2 12s4.48 10 10 10 10-4.48 10-10S17.52 2 12 2zm0 18c-4.41 0-8-3.59-8-8s3.59-8 8-8 8 3.59 8 8-3.59 8-8 8zm0-14c-2.21 0-4 1.79-4 4h2c0-1.1.9-2 2-2s2 .9 2 2c0 2-3 1.75-3 5h2c0-2.25 3-2.5 3-5 0-2.21-1.79-4-4-4z"/></symbol><symbol viewBox="0 0 24 24" id="md-info" xmlns="http://www.w3.org/2000/svg"><path d="M12 2C6.48 2 2 6.48 2 12s4.48 10 10 10 10-4.48 10-10S17.52 2 12 2zm1 15h-2v-6h2v6zm0-8h-2V7h2v2z"/></symbol><symbol viewBox="0 0 24 24" id="md-info-outline" xmlns="http://www.w3.org/2000/svg"><path d="M11 17h2v-6h-2v6zm1-15C6.48 2 2 6.48 2 12s4.48 10 10 10 10-4.48 10-10S17.52 2 12 2zm0 18c-4.41 0-8-3.59-8-8s3.59-8 8-8 8 3.59 8 8-3.59 8-8 8zM11 9h2V7h-2v2z"/></symbol><symbol viewBox="0 0 24 24" id="md-insert-chart" xmlns="http://www.w3.org/2000/svg"><path d="M19 3H5c-1.1 0-2 .9-2 2v14c0 1.1.9 2 2 2h14c1.1 0 2-.9 2-2V5c0-1.1-.9-2-2-2zM9 17H7v-7h2v7zm4 0h-2V7h2v10zm4 0h-2v-4h2v4z"/></symbol><symbol viewBox="0 0 24 24" id="md-keyboard-down" xmlns="http://www.w3.org/2000/svg"><path d="M7.41 7.84L12 12.42l4.59-4.58L18 9.25l-6 6-6-6z"/></symbol><symbol viewBox="0 0 24 24" id="md-keyboard-up" xmlns="http://www.w3.org/2000/svg"><path d="M7.41 15.41L12 10.83l4.59 4.58L18 14l-6-6-6 6z"/></symbol><symbol viewBox="0 0 24 24" id="md-label" xmlns="http://www.w3.org/2000/svg"><path d="M17.63 5.84C17.27 5.33 16.67 5 16 5L5 5.01C3.9 5.01 3 5.9 3 7v10c0 1.1.9 1.99 2 1.99L16 19c.67 0 1.27-.33 1.63-.84L22 12l-4.37-6.16z"/></symbol><symbol viewBox="0 0 24 24" id="md-layers" xmlns="http://www.w3.org/2000/svg"><path d="M11.99 18.54l-7.37-5.73L3 14.07l9 7 9-7-1.63-1.27-7.38 5.74zM12 16l7.36-5.73L21 9l-9-7-9 7 1.63 1.27L12 16z"/></symbol><symbol viewBox="0 0 24 24" id="md-lightbulb" xmlns="http://www.w3.org/2000/svg"><path d="M9 21c0 .55.45 1 1 1h4c.55 0 1-.45 1-1v-1H9v1zm3-19C8.14 2 5 5.14 5 9c0 2.38 1.19 4.47 3 5.74V17c0 .55.45 1 1 1h6c.55 0 1-.45 1-1v-2.26c1.81-1.27 3-3.36 3-5.74 0-3.86-3.14-7-7-7zm2.85 11.1l-.85.6V16h-4v-2.3l-.85-.6A4.997 4.997 0 0 1 7 9c0-2.76 2.24-5 5-5s5 2.24 5 5c0 1.63-.8 3.16-2.15 4.1z"/></symbol><symbol viewBox="0 0 24 24" id="md-link" xmlns="http://www.w3.org/2000/svg"><path d="M3.9 12c0-1.71 1.39-3.1 3.1-3.1h4V7H7c-2.76 0-5 2.24-5 5s2.24 5 5 5h4v-1.9H7c-1.71 0-3.1-1.39-3.1-3.1zM8 13h8v-2H8v2zm9-6h-4v1.9h4c1.71 0 3.1 1.39 3.1 3.1s-1.39 3.1-3.1 3.1h-4V17h4c2.76 0 5-2.24 5-5s-2.24-5-5-5z"/></symbol><symbol viewBox="0 0 24 24" id="md-local-activity" xmlns="http://www.w3.org/2000/svg"><path d="M20 12c0-1.1.9-2 2-2V6c0-1.1-.9-2-2-2H4c-1.1 0-1.99.9-1.99 2v4c1.1 0 1.99.9 1.99 2s-.89 2-2 2v4c0 1.1.9 2 2 2h16c1.1 0 2-.9 2-2v-4c-1.1 0-2-.9-2-2zm-4.42 4.8L12 14.5l-3.58 2.3 1.08-4.12-3.29-2.69 4.24-.25L12 5.8l1.54 3.95 4.24.25-3.29 2.69 1.09 4.11z"/></symbol><symbol viewBox="0 0 24 24" id="md-lock-open" xmlns="http://www.w3.org/2000/svg"><path d="M12 17c1.1 0 2-.9 2-2s-.9-2-2-2-2 .9-2 2 .9 2 2 2zm6-9h-1V6c0-2.76-2.24-5-5-5S7 3.24 7 6h1.9c0-1.71 1.39-3.1 3.1-3.1 1.71 0 3.1 1.39 3.1 3.1v2H6c-1.1 0-2 .9-2 2v10c0 1.1.9 2 2 2h12c1.1 0 2-.9 2-2V10c0-1.1-.9-2-2-2zm0 12H6V10h12v10z"/></symbol><symbol viewBox="0 0 24 24" id="md-merge" xmlns="http://www.w3.org/2000/svg"><path d="M17 20.41L18.41 19 15 15.59 13.59 17 17 20.41zM7.5 8H11v5.59L5.59 19 7 20.41l6-6V8h3.5L12 3.5 7.5 8z"/></symbol><symbol viewBox="0 0 24 24" id="md-minus" xmlns="http://www.w3.org/2000/svg"><path d="M19 13H5v-2h14v2z"/></symbol><symbol viewBox="0 0 24 24" id="md-money" xmlns="http://www.w3.org/2000/svg"><path d="M11.8 10.9c-2.27-.59-3-1.2-3-2.15 0-1.09 1.01-1.85 2.7-1.85 1.78 0 2.44.85 2.5 2.1h2.21c-.07-1.72-1.12-3.3-3.21-3.81V3h-3v2.16c-1.94.42-3.5 1.68-3.5 3.61 0 2.31 1.91 3.46 4.7 4.13 2.5.6 3 1.48 3 2.41 0 .69-.49 1.79-2.7 1.79-2.06 0-2.87-.92-2.98-2.1h-2.2c.12 2.19 1.76 3.42 3.68 3.83V21h3v-2.15c1.95-.37 3.5-1.5 3.5-3.55 0-2.84-2.43-3.81-4.7-4.4z"/></symbol><symbol viewBox="0 0 24 24" id="md-mouse" xmlns="http://www.w3.org/2000/svg"><path d="M13 1.07V9h7c0-4.08-3.05-7.44-7-7.93zM4 15c0 4.42 3.58 8 8 8s8-3.58 8-8v-4H4v4zm7-13.93C7.05 1.56 4 4.92 4 9h7V1.07z"/></symbol><symbol viewBox="0 0 24 24" id="md-no-access" xmlns="http://www.w3.org/2000/svg"><path d="M12 2C6.48 2 2 6.48 2 12s4.48 10 10 10 10-4.48 10-10S17.52 2 12 2zm0 18c-4.42 0-8-3.58-8-8 0-1.85.63-3.55 1.69-4.9L16.9 18.31A7.902 7.902 0 0 1 12 20zm6.31-3.1L7.1 5.69A7.902 7.902 0 0 1 12 4c4.42 0 8 3.58 8 8 0 1.85-.63 3.55-1.69 4.9z"/></symbol><symbol viewBox="0 0 24 24" id="md-notifications" xmlns="http://www.w3.org/2000/svg"><path d="M12 22c1.1 0 2-.9 2-2h-4c0 1.1.9 2 2 2zm6-6v-5c0-3.07-1.63-5.64-4.5-6.32V4c0-.83-.67-1.5-1.5-1.5s-1.5.67-1.5 1.5v.68C7.64 5.36 6 7.92 6 11v5l-2 2v1h16v-1l-2-2zm-2 1H8v-6c0-2.48 1.51-4.5 4-4.5s4 2.02 4 4.5v6z"/></symbol><symbol viewBox="0 0 24 24" id="md-pause" xmlns="http://www.w3.org/2000/svg"><path d="M6 19h4V5H6v14zm8-14v14h4V5h-4z"/></symbol><symbol viewBox="0 0 24 24" id="md-people" xmlns="http://www.w3.org/2000/svg"><path d="M16 11c1.66 0 2.99-1.34 2.99-3S17.66 5 16 5c-1.66 0-3 1.34-3 3s1.34 3 3 3zm-8 0c1.66 0 2.99-1.34 2.99-3S9.66 5 8 5C6.34 5 5 6.34 5 8s1.34 3 3 3zm0 2c-2.33 0-7 1.17-7 3.5V19h14v-2.5c0-2.33-4.67-3.5-7-3.5zm8 0c-.29 0-.62.02-.97.05 1.16.84 1.97 1.97 1.97 3.45V19h6v-2.5c0-2.33-4.67-3.5-7-3.5z"/></symbol><symbol viewBox="0 0 24 24" id="md-person" xmlns="http://www.w3.org/2000/svg"><path d="M12 12c2.21 0 4-1.79 4-4s-1.79-4-4-4-4 1.79-4 4 1.79 4 4 4zm0 2c-2.67 0-8 1.34-8 4v2h16v-2c0-2.66-5.33-4-8-4z"/></symbol><symbol viewBox="0 0 24 24" id="md-person-outline" xmlns="http://www.w3.org/2000/svg"><path d="M12 5.9a2.1 2.1 0 1 1 0 4.2 2.1 2.1 0 0 1 0-4.2m0 9c2.97 0 6.1 1.46 6.1 2.1v1.1H5.9V17c0-.64 3.13-2.1 6.1-2.1M12 4C9.79 4 8 5.79 8 8s1.79 4 4 4 4-1.79 4-4-1.79-4-4-4zm0 9c-2.67 0-8 1.34-8 4v3h16v-3c0-2.66-5.33-4-8-4z"/></symbol><symbol viewBox="0 0 24 24" id="md-pie-chart-outlined" xmlns="http://www.w3.org/2000/svg"><path d="M12 2C6.5 2 2 6.5 2 12s4.5 10 10 10 10-4.5 10-10S17.5 2 12 2zm1 2.07c3.61.45 6.48 3.33 6.93 6.93H13V4.07zM4 12c0-4.06 3.07-7.44 7-7.93v15.87c-3.93-.5-7-3.88-7-7.94zm9 7.93V13h6.93A8.002 8.002 0 0 1 13 19.93z"/></symbol><symbol viewBox="0 0 24 24" id="md-place" xmlns="http://www.w3.org/2000/svg"><path d="M12 2C8.13 2 5 5.13 5 9c0 5.25 7 13 7 13s7-7.75 7-13c0-3.87-3.13-7-7-7zm0 9.5a2.5 2.5 0 0 1 0-5 2.5 2.5 0 0 1 0 5z"/></symbol><symbol viewBox="0 0 24 24" id="md-play" xmlns="http://www.w3.org/2000/svg"><path d="M8 5v14l11-7z"/></symbol><symbol viewBox="0 0 24 24" id="md-power" xmlns="http://www.w3.org/2000/svg"><path d="M13 3h-2v10h2V3zm4.83 2.17l-1.42 1.42A6.92 6.92 0 0 1 19 12c0 3.87-3.13 7-7 7A6.995 6.995 0 0 1 7.58 6.58L6.17 5.17A8.932 8.932 0 0 0 3 12a9 9 0 0 0 18 0c0-2.74-1.23-5.18-3.17-6.83z"/></symbol><symbol viewBox="0 0 24 24" id="md-radio" xmlns="http://www.w3.org/2000/svg"><path d="M3.24 6.15C2.51 6.43 2 7.17 2 8v12a2 2 0 0 0 2 2h16a2 2 0 0 0 2-2V8c0-1.11-.89-2-2-2H8.3l8.26-3.34L15.88 1 3.24 6.15zM7 20c-1.66 0-3-1.34-3-3s1.34-3 3-3 3 1.34 3 3-1.34 3-3 3zm13-8h-2v-2h-2v2H4V8h16v4z"/></symbol><symbol viewBox="0 0 24 24" id="md-radio-checked" xmlns="http://www.w3.org/2000/svg"><path d="M12 7c-2.76 0-5 2.24-5 5s2.24 5 5 5 5-2.24 5-5-2.24-5-5-5zm0-5C6.48 2 2 6.48 2 12s4.48 10 10 10 10-4.48 10-10S17.52 2 12 2zm0 18c-4.42 0-8-3.58-8-8s3.58-8 8-8 8 3.58 8 8-3.58 8-8 8z"/></symbol><symbol viewBox="0 0 24 24" id="md-radio-unchecked" xmlns="http://www.w3.org/2000/svg"><path d="M12 2C6.48 2 2 6.48 2 12s4.48 10 10 10 10-4.48 10-10S17.52 2 12 2zm0 18c-4.42 0-8-3.58-8-8s3.58-8 8-8 8 3.58 8 8-3.58 8-8 8z"/></symbol><symbol viewBox="0 0 24 24" id="md-receipt" xmlns="http://www.w3.org/2000/svg"><path d="M18 17H6v-2h12v2zm0-4H6v-2h12v2zm0-4H6V7h12v2zM3 22l1.5-1.5L6 22l1.5-1.5L9 22l1.5-1.5L12 22l1.5-1.5L15 22l1.5-1.5L18 22l1.5-1.5L21 22V2l-1.5 1.5L18 2l-1.5 1.5L15 2l-1.5 1.5L12 2l-1.5 1.5L9 2 7.5 3.5 6 2 4.5 3.5 3 2v20z"/></symbol><symbol viewBox="16 -12 48 48" id="md-record" xmlns="http://www.w3.org/2000/svg"><circle cx="40" cy="12" r="16"/></symbol><symbol viewBox="0 0 24 24" id="md-remove" xmlns="http://www.w3.org/2000/svg"><path d="M14.59 8L12 10.59 9.41 8 8 9.41 10.59 12 8 14.59 9.41 16 12 13.41 14.59 16 16 14.59 13.41 12 16 9.41 14.59 8zM12 2C6.47 2 2 6.47 2 12s4.47 10 10 10 10-4.47 10-10S17.53 2 12 2zm0 18c-4.41 0-8-3.59-8-8s3.59-8 8-8 8 3.59 8 8-3.59 8-8 8z"/></symbol><symbol viewBox="0 0 24 24" id="md-search" xmlns="http://www.w3.org/2000/svg"><path d="M15.5 14h-.79l-.28-.27A6.471 6.471 0 0 0 16 9.5 6.5 6.5 0 1 0 9.5 16c1.61 0 3.09-.59 4.23-1.57l.27.28v.79l5 4.99L20.49 19l-4.99-5zm-6 0C7.01 14 5 11.99 5 9.5S7.01 5 9.5 5 14 7.01 14 9.5 11.99 14 9.5 14z"/></symbol><symbol viewBox="0 0 24 24" id="md-send" xmlns="http://www.w3.org/2000/svg"><path d="M2.01 21L23 12 2.01 3 2 10l15 2-15 2z"/></symbol><symbol viewBox="0 0 24 24" id="md-settings" xmlns="http://www.w3.org/2000/svg"><path d="M19.43 12.98c.04-.32.07-.64.07-.98s-.03-.66-.07-.98l2.11-1.65c.19-.15.24-.42.12-.64l-2-3.46c-.12-.22-.39-.3-.61-.22l-2.49 1c-.52-.4-1.08-.73-1.69-.98l-.38-2.65A.488.488 0 0 0 14 2h-4c-.25 0-.46.18-.49.42l-.38 2.65c-.61.25-1.17.59-1.69.98l-2.49-1c-.23-.09-.49 0-.61.22l-2 3.46c-.13.22-.07.49.12.64l2.11 1.65c-.04.32-.07.65-.07.98s.03.66.07.98l-2.11 1.65c-.19.15-.24.42-.12.64l2 3.46c.12.22.39.3.61.22l2.49-1c.52.4 1.08.73 1.69.98l.38 2.65c.03.24.24.42.49.42h4c.25 0 .46-.18.49-.42l.38-2.65c.61-.25 1.17-.59 1.69-.98l2.49 1c.23.09.49 0 .61-.22l2-3.46c.12-.22.07-.49-.12-.64l-2.11-1.65zM12 15.5c-1.93 0-3.5-1.57-3.5-3.5s1.57-3.5 3.5-3.5 3.5 1.57 3.5 3.5-1.57 3.5-3.5 3.5z"/></symbol><symbol viewBox="0 0 24 24" id="md-share" xmlns="http://www.w3.org/2000/svg"><path d="M18 16.08c-.76 0-1.44.3-1.96.77L8.91 12.7c.05-.23.09-.46.09-.7s-.04-.47-.09-.7l7.05-4.11c.54.5 1.25.81 2.04.81 1.66 0 3-1.34 3-3s-1.34-3-3-3-3 1.34-3 3c0 .24.04.47.09.7L8.04 9.81C7.5 9.31 6.79 9 6 9c-1.66 0-3 1.34-3 3s1.34 3 3 3c.79 0 1.5-.31 2.04-.81l7.12 4.16c-.05.21-.08.43-.08.65 0 1.61 1.31 2.92 2.92 2.92 1.61 0 2.92-1.31 2.92-2.92s-1.31-2.92-2.92-2.92z"/></symbol><symbol viewBox="0 0 24 24" id="md-source" xmlns="http://www.w3.org/2000/svg"><path d="M17 16l-4-4V8.82C14.16 8.4 15 7.3 15 6c0-1.66-1.34-3-3-3S9 4.34 9 6c0 1.3.84 2.4 2 2.82V12l-4 4H3v5h5v-3.05l4-4.2 4 4.2V21h5v-5h-4z"/></symbol><symbol viewBox="0 0 24 24" id="md-stars" xmlns="http://www.w3.org/2000/svg"><path d="M11.99 2C6.47 2 2 6.48 2 12s4.47 10 9.99 10C17.52 22 22 17.52 22 12S17.52 2 11.99 2zm4.24 16L12 15.45 7.77 18l1.12-4.81-3.73-3.23 4.92-.42L12 5l1.92 4.53 4.92.42-3.73 3.23L16.23 18z"/></symbol><symbol viewBox="0 0 24 24" id="md-stop" xmlns="http://www.w3.org/2000/svg"><path d="M6 6h12v12H6z"/></symbol><symbol viewBox="0 0 24 24" id="md-success" xmlns="http://www.w3.org/2000/svg"><path d="M12 2C6.48 2 2 6.48 2 12s4.48 10 10 10 10-4.48 10-10S17.52 2 12 2zm-2 15l-5-5 1.41-1.41L10 14.17l7.59-7.59L19 8l-9 9z"/></symbol><symbol viewBox="0 0 24 24" id="md-swap-horiz" xmlns="http://www.w3.org/2000/svg"><path d="M6.99 11L3 15l3.99 4v-3H14v-2H6.99v-3zM21 9l-3.99-4v3H10v2h7.01v3L21 9z"/></symbol><symbol viewBox="0 0 24 24" id="md-textsms" xmlns="http://www.w3.org/2000/svg"><path d="M20 2H4c-1.1 0-1.99.9-1.99 2L2 22l4-4h14c1.1 0 2-.9 2-2V4c0-1.1-.9-2-2-2zM9 11H7V9h2v2zm4 0h-2V9h2v2zm4 0h-2V9h2v2z"/></symbol><symbol viewBox="0 0 24 24" id="md-thumb-down" xmlns="http://www.w3.org/2000/svg"><path d="M15 3H6c-.83 0-1.54.5-1.84 1.22l-3.02 7.05c-.09.23-.14.47-.14.73v1.91l.01.01L1 14c0 1.1.9 2 2 2h6.31l-.95 4.57-.03.32c0 .41.17.79.44 1.06L9.83 23l6.59-6.59c.36-.36.58-.86.58-1.41V5c0-1.1-.9-2-2-2zm4 0v12h4V3h-4z"/></symbol><symbol viewBox="0 0 24 24" id="md-thumb-up" xmlns="http://www.w3.org/2000/svg"><path d="M1 21h4V9H1v12zm22-11c0-1.1-.9-2-2-2h-6.31l.95-4.57.03-.32c0-.41-.17-.79-.44-1.06L14.17 1 7.59 7.59C7.22 7.95 7 8.45 7 9v10c0 1.1.9 2 2 2h9c.83 0 1.54-.5 1.84-1.22l3.02-7.05c.09-.23.14-.47.14-.73v-1.91l-.01-.01L23 10z"/></symbol><symbol viewBox="0 0 24 24" id="md-time" xmlns="http://www.w3.org/2000/svg"><path d="M11.99 2C6.47 2 2 6.48 2 12s4.47 10 9.99 10C17.52 22 22 17.52 22 12S17.52 2 11.99 2zM12 20c-4.42 0-8-3.58-8-8s3.58-8 8-8 8 3.58 8 8-3.58 8-8 8zm.5-13H11v6l5.25 3.15.75-1.23-4.5-2.67z"/></symbol><symbol viewBox="0 0 24 24" id="md-touch" xmlns="http://www.w3.org/2000/svg"><path d="M9 11.24V7.5a2.5 2.5 0 0 1 5 0v3.74c1.21-.81 2-2.18 2-3.74C16 5.01 13.99 3 11.5 3S7 5.01 7 7.5c0 1.56.79 2.93 2 3.74zm9.84 4.63l-4.54-2.26c-.17-.07-.35-.11-.54-.11H13v-6c0-.83-.67-1.5-1.5-1.5S10 6.67 10 7.5v10.74l-3.43-.72c-.08-.01-.15-.03-.24-.03-.31 0-.59.13-.79.33l-.79.8 4.94 4.94c.27.27.65.44 1.06.44h6.79c.75 0 1.33-.55 1.44-1.28l.75-5.27c.01-.07.02-.14.02-.2 0-.62-.38-1.16-.91-1.38z"/></symbol><symbol viewBox="0 0 24 24" id="md-trending-up" xmlns="http://www.w3.org/2000/svg"><path d="M16 6l2.29 2.29-4.88 4.88-4-4L2 16.59 3.41 18l6-6 4 4 6.3-6.29L22 12V6z"/></symbol><symbol viewBox="0 0 24 24" id="md-upload" xmlns="http://www.w3.org/2000/svg"><path d="M19.35 10.04A7.49 7.49 0 0 0 12 4C9.11 4 6.6 5.64 5.35 8.04A5.994 5.994 0 0 0 0 14c0 3.31 2.69 6 6 6h13c2.76 0 5-2.24 5-5 0-2.64-2.05-4.78-4.65-4.96zM14 13v4h-4v-4H7l5-5 5 5h-3z"/></symbol><symbol viewBox="0 0 24 24" id="md-warning" xmlns="http://www.w3.org/2000/svg"><path d="M1 21h22L12 2 1 21zm12-3h-2v-2h2v2zm0-4h-2v-4h2v4z"/></symbol><symbol viewBox="0 0 24 24" id="md-wifi" xmlns="http://www.w3.org/2000/svg"><path d="M12 11c-1.1 0-2 .9-2 2s.9 2 2 2 2-.9 2-2-.9-2-2-2zm6 2c0-3.31-2.69-6-6-6s-6 2.69-6 6c0 2.22 1.21 4.15 3 5.19l1-1.74c-1.19-.7-2-1.97-2-3.45 0-2.21 1.79-4 4-4s4 1.79 4 4c0 1.48-.81 2.75-2 3.45l1 1.74c1.79-1.04 3-2.97 3-5.19zM12 3C6.48 3 2 7.48 2 13c0 3.7 2.01 6.92 4.99 8.65l1-1.73C5.61 18.53 4 15.96 4 13c0-4.42 3.58-8 8-8s8 3.58 8 8c0 2.96-1.61 5.53-4 6.92l1 1.73c2.99-1.73 5-4.95 5-8.65 0-5.52-4.48-10-10-10z"/></symbol></svg>